<?xml version="1.0"?>
<!-- Created by MetaPost 1.802 on 2014.01.25:1049 -->
<svg version="1.1" xmlns="http://www.w3.org/2000/svg" xmlns:xlink="http://www.w3.org/1999/xlink" width="141.403442" height="41.074081" viewBox="0 0 141.403442 41.074081">
<!-- Original BoundingBox: -70.514969 -5.599976 70.888474 35.474106 -->
  <path d="M67.384811 35.000000C67.384811 36.444305,68.555695 37.615189,70.000000 37.615189C71.444305 37.615189,72.615189 36.444305,72.615189 35.000000L72.615189 3.617798C72.615189 2.173492,71.444305 1.002625,70.000000 1.002625C68.555695 1.002625,67.384811 2.173492,67.384811 3.617798Z" style="fill: rgb(80.000305%,80.000305%,80.000305%);stroke: none;"></path>
  <path d="M73.138214 35.000000C73.138214 36.444305,74.074921 37.615189,75.230362 37.615189C76.385818 37.615189,77.322525 36.444305,77.322525 35.000000L77.322525 3.617798C77.322525 2.173492,76.385818 1.002625,75.230362 1.002625C74.074921 1.002625,73.138214 2.173492,73.138214 3.617798Z" style="fill: rgb(76.000977%,76.000977%,76.000977%);stroke: none;"></path>
  <path d="M62.677475 35.000000C62.677475 36.444305,63.614182 37.615189,64.769638 37.615189C65.925079 37.615189,66.861786 36.444305,66.861786 35.000000L66.861786 3.617798C66.861786 2.173492,65.925079 1.002625,64.769638 1.002625C63.614182 1.002625,62.677475 2.173492,62.677475 3.617798Z" style="fill: rgb(76.000977%,76.000977%,76.000977%);stroke: none;"></path>
  <path d="M77.845535 35.000000C77.845535 36.444305,78.548080 37.615189,79.414673 37.615189C80.281265 37.615189,80.983795 36.444305,80.983795 35.000000L80.983795 3.617798C80.983795 2.173492,80.281265 1.002625,79.414673 1.002625C78.548080 1.002625,77.845535 2.173492,77.845535 3.617798Z" style="fill: rgb(72.000122%,72.000122%,72.000122%);stroke: none;"></path>
  <path d="M59.016205 35.000000C59.016205 36.444305,59.718735 37.615189,60.585327 37.615189C61.451920 37.615189,62.154465 36.444305,62.154465 35.000000L62.154465 3.617798C62.154465 2.173492,61.451920 1.002625,60.585327 1.002625C59.718735 1.002625,59.016205 2.173492,59.016205 3.617798Z" style="fill: rgb(72.000122%,72.000122%,72.000122%);stroke: none;"></path>
  <path d="M81.506866 35.000000C81.506866 36.444305,81.975204 37.615189,82.552933 37.615189C83.130646 37.615189,83.598984 36.444305,83.598984 35.000000L83.598984 3.617798C83.598984 2.173492,83.130646 1.002625,82.552933 1.002625C81.975204 1.002625,81.506866 2.173492,81.506866 3.617798Z" style="fill: rgb(68.000793%,68.000793%,68.000793%);stroke: none;"></path>
  <path d="M56.401016 35.000000C56.401016 36.444305,56.869354 37.615189,57.447067 37.615189C58.024796 37.615189,58.493134 36.444305,58.493134 35.000000L58.493134 3.617798C58.493134 2.173492,58.024796 1.002625,57.447067 1.002625C56.869354 1.002625,56.401016 2.173492,56.401016 3.617798Z" style="fill: rgb(68.000793%,68.000793%,68.000793%);stroke: none;"></path>
  <path d="M84.122009 35.000000C84.122009 36.444305,84.356171 37.615189,84.645035 37.615189C84.933899 37.615189,85.168060 36.444305,85.168060 35.000000L85.168060 3.617798C85.168060 2.173492,84.933899 1.002625,84.645035 1.002625C84.356171 1.002625,84.122009 2.173492,84.122009 3.617798Z" style="fill: rgb(63.999939%,63.999939%,63.999939%);stroke: none;"></path>
  <path d="M54.831940 35.000000C54.831940 36.444305,55.066101 37.615189,55.354965 37.615189C55.643829 37.615189,55.877991 36.444305,55.877991 35.000000L55.877991 3.617798C55.877991 2.173492,55.643829 1.002625,55.354965 1.002625C55.066101 1.002625,54.831940 2.173492,54.831940 3.617798Z" style="fill: rgb(63.999939%,63.999939%,63.999939%);stroke: none;"></path>
  <path d="M85.691101 5.279327C87.135406 5.279327,88.306290 3.991364,88.306290 2.402618C88.306290 0.813858,87.135406 -0.474106,85.691101 -0.474106L54.308899 -0.474106C52.864594 -0.474106,51.693710 0.813858,51.693710 2.402618C51.693710 3.991364,52.864594 5.279327,54.308899 5.279327Z" style="fill: rgb(80.000305%,80.000305%,80.000305%);stroke: none;"></path>
  <path d="M-0.514969 39.497482C22.982834 40.232422,46.490707 40.599976,70.000000 40.599976L139.110916 40.599976L140.888474 39.355316C117.250458 39.355316,93.638031 37.799988,70.000000 37.799988C46.834152 37.799988,23.669769 38.167542,0.515594 38.902481Z" style="fill: rgb(60.000610%,60.000610%,60.000610%);stroke: none;"></path>
</svg>
